PERFORMER "Booka Shade"
TITLE "Essential Mix (2006-07-02)"
FILE "Booka_Shade_-_Essential_Mix_(BBC_Radio_1)_02-07-2006.mp3" MP3
  TRACK 01 AUDIO
    PERFORMER "Essential Mix"
    TITLE "Intro"
    INDEX 01 00:00:00
  TRACK 02 AUDIO
    PERFORMER "Booka Shade"
    TITLE "Night Falls"
    INDEX 01 00:40:22
  TRACK 03 AUDIO
    PERFORMER "Booka Shade"
    TITLE "Trespass 06"
    INDEX 01 06:30:50
  TRACK 04 AUDIO
    PERFORMER "Booka Shade"
    TITLE "Wasting Time"
    INDEX 01 11:00:51
  TRACK 05 AUDIO
    PERFORMER "Booka Shade"
    TITLE "Oh Superman"
    INDEX 01 15:20:62
  TRACK 06 AUDIO
    PERFORMER "Booka Shade"
    TITLE "Played Runner"
    INDEX 01 19:35:60
  TRACK 07 AUDIO
    PERFORMER "Booka Shade"
    TITLE "Mr Shuffle"
    INDEX 01 24:43:24
  TRACK 08 AUDIO
    PERFORMER "Booka Shade"
    TITLE "Pong Pang"
    INDEX 01 29:50:64
  TRACK 09 AUDIO
    PERFORMER "Booka Shade"
    TITLE "In White Rooms"
    INDEX 01 36:27:57
  TRACK 10 AUDIO
    PERFORMER "Booka Shade"
    TITLE "Darko"
    INDEX 01 41:26:70
  TRACK 11 AUDIO
    PERFORMER "Booka Shade"
    TITLE "Mandarine Girl"
    INDEX 01 46:09:21
  TRACK 12 AUDIO
    PERFORMER "Booka Shade"
    TITLE "Body Language/Cha!"
    INDEX 01 52:24:25
  TRACK 13 AUDIO
    PERFORMER "Booka Shade"
    TITLE "Silk"
    INDEX 01 59:02:70
  TRACK 14 AUDIO
    PERFORMER "M.A.N.D.Y. vs. Booka Shade"
    TITLE "Body Language (Radioslave Remix)"
    INDEX 01 62:54:00
  TRACK 15 AUDIO
    PERFORMER "Insomnia feat. Claudio Franco"
    TITLE "Rodamaal (Ame Remix)"
    INDEX 01 65:53:73
  TRACK 16 AUDIO
    PERFORMER "Aphex Twin"
    TITLE "Windowlicker (Trentemøller Remix)"
    INDEX 01 73:08:73
  TRACK 17 AUDIO
    PERFORMER "Marlow"
    TITLE "Movin (Matthias Tanzmann Remix)"
    INDEX 01 78:25:30
  TRACK 18 AUDIO
    PERFORMER "Yello"
    TITLE "Oh Yeah 06 (Booka Shade Remix)"
    INDEX 01 83:53:17
  TRACK 19 AUDIO
    PERFORMER "DJT vs. Booka Shade"
    TITLE "Queen Lucid"
    INDEX 01 86:59:21
  TRACK 20 AUDIO
    PERFORMER "Noze"
    TITLE "Kitchen"
    INDEX 01 90:14:72
  TRACK 21 AUDIO
    PERFORMER "Sola Fides"
    TITLE "808 Funk"
    INDEX 01 93:48:03
  TRACK 22 AUDIO
    PERFORMER "Shindoe"
    TITLE "Phunk"
    INDEX 01 95:15:60
  TRACK 23 AUDIO
    PERFORMER "Thomas Schumacher"
    TITLE "RedPurple"
    INDEX 01 98:05:03
  TRACK 24 AUDIO
    PERFORMER "Holden & Thompson"
    TITLE "Come To Me (Last Version)"
    INDEX 01 103:50:37
  TRACK 25 AUDIO
    PERFORMER "Djuma Soundsystem"
    TITLE "Les Djinns (Trentemøller Remix)"
    INDEX 01 108:58:00
  TRACK 26 AUDIO
    PERFORMER "Jay Haze"
    TITLE "Soul In A Bottle"
    INDEX 01 114:27:36
  TRACK 27 AUDIO
    PERFORMER "Essential Chrome"
    TITLE "Mika"
    INDEX 01 116:03:28